<svg width="363" height="106" viewBox="0 0 363 106" fill="none" xmlns="http://www.w3.org/2000/svg">
<g clip-path="url(#clip0_5_2)">
<mask id="mask0_5_2" style="mask-type:luminance" maskUnits="userSpaceOnUse" x="0" y="0" width="94" height="106">
<path d="M0.473999 0.333374H93.474V105.667H0.473999V0.333374Z" fill="white"/>
</mask>
<g mask="url(#mask0_5_2)">
<path d="M93.474 31.3022C93.4688 29.5418 93.0938 27.9845 92.3334 26.6511C91.5886 25.3386 90.4688 24.2397 88.974 23.3699C76.5938 16.2241 64.198 9.09906 51.8177 1.94802C48.4844 0.0209334 45.2448 0.0886424 41.9323 2.04698C37.0105 4.95323 12.3334 19.1043 4.97921 23.3647C1.95317 25.1199 0.484415 27.8074 0.479207 31.297C0.473999 45.6668 0.479207 60.0366 0.473999 74.4116C0.479207 76.1303 0.838582 77.6564 1.56254 78.9689C2.31254 80.323 3.44275 81.4532 4.97921 82.3386C12.3334 86.6043 37.0105 100.75 41.9375 103.656C45.25 105.615 48.4844 105.688 51.823 103.755C64.198 96.6043 76.5938 89.4793 88.9792 82.3334C90.5105 81.4428 91.6459 80.3126 92.3907 78.9636C93.1146 77.6511 93.4792 76.1251 93.4792 74.4011C93.4792 74.4011 93.4792 45.672 93.474 31.3022Z" fill="#FE330A"/>
</g>
<mask id="mask1_5_2" style="mask-type:luminance" maskUnits="userSpaceOnUse" x="0" y="0" width="82" height="87">
<path d="M0.473999 0.333374H81.3334V87H0.473999V0.333374Z" fill="white"/>
</mask>
<g mask="url(#mask1_5_2)">
<path d="M51.7344 2.04177C48.4063 0.119894 45.1771 0.187602 41.8698 2.14073C36.948 5.04177 12.3177 19.1511 4.974 23.4064C1.95317 25.1564 0.484415 27.8334 0.479207 31.3126C0.473999 45.6511 0.479207 59.9793 0.473999 74.3178C0.479207 76.0314 0.838582 77.547 1.56254 78.8595C2.30733 80.2084 3.43754 81.3386 4.974 82.2241C6.65108 83.198 9.24483 84.6928 12.2969 86.448L80.2605 18.4741C70.7552 13.0001 61.2396 7.53135 51.7344 2.04177Z" fill="black"/>
</g>
<path d="M56.5886 46.3022L71.0625 46.4063C71.0625 40.3751 64.9532 25.6042 47.4584 25.6042C36.3073 25.6042 21.3177 32.6928 21.3177 53.073C21.3177 73.4532 36.0105 80.099 47.4584 80.099C65.9896 80.099 70.4167 67.2761 70.4167 60.0261L56.6094 59.2397C56.6094 59.2397 56.9792 67.6199 47.3855 67.6199C38.5209 67.6199 37.0469 56.7657 37.0469 53.073C37.0469 47.4636 39.0365 38.4532 47.3855 38.4532C55.7292 38.4532 56.5886 46.3022 56.5886 46.3022Z" fill="white"/>
<path d="M129.076 33.349C129.076 35.8646 129.602 37.9635 130.659 39.6406C131.727 41.3229 133.102 42.5885 134.784 43.4323C136.461 44.2656 138.221 44.6823 140.055 44.6823C141.607 44.6823 143.107 44.3802 144.555 43.7656C146.013 43.1563 147.284 42.2552 148.367 41.0573C149.451 39.849 150.206 38.3281 150.638 36.4948H160.513C160.024 39.9688 158.815 43.0104 156.888 45.6198C154.971 48.2344 152.555 50.2604 149.638 51.7031C146.721 53.151 143.524 53.8698 140.055 53.8698C137.19 53.8698 134.513 53.3542 132.013 52.3281C129.513 51.3021 127.31 49.8646 125.409 48.0156C123.503 46.1719 122.018 43.9948 120.951 41.4948C119.878 38.9948 119.346 36.2813 119.346 33.349C119.346 30.4219 119.878 27.6979 120.951 25.1823C122.018 22.6563 123.503 20.4635 125.409 18.599C127.31 16.724 129.513 15.2656 132.013 14.224C134.513 13.1719 137.19 12.6406 140.055 12.6406C143.482 12.6406 146.664 13.3698 149.596 14.8281C152.539 16.276 154.982 18.2969 156.93 20.8906C158.872 23.474 160.055 26.4844 160.471 29.9115H150.576C150.159 28.1198 149.399 26.651 148.305 25.4948C147.221 24.3281 145.956 23.4531 144.513 22.8698C143.065 22.276 141.581 21.974 140.055 21.974C138.221 21.974 136.461 22.401 134.784 23.2448C133.102 24.0781 131.727 25.3385 130.659 27.0156C129.602 28.6823 129.076 30.7969 129.076 33.349Z" fill="black"/>
<path d="M193.854 37.8698C193.854 40.6094 193.38 43.0105 192.437 45.0782C191.505 47.1355 190.255 48.849 188.687 50.224C187.13 51.599 185.375 52.6303 183.417 53.3073C181.458 53.9844 179.443 54.3282 177.375 54.3282C175.318 54.3282 173.302 53.9844 171.333 53.3073C169.375 52.6303 167.604 51.599 166.021 50.224C164.437 48.849 163.177 47.1355 162.25 45.0782C161.318 43.0105 160.854 40.6094 160.854 37.8698C160.854 35.1198 161.318 32.7136 162.25 30.6407C163.177 28.5573 164.427 26.8282 166 25.4532C167.568 24.0782 169.339 23.0521 171.312 22.3698C173.297 21.6927 175.318 21.349 177.375 21.349C179.443 21.349 181.458 21.6927 183.417 22.3698C185.375 23.0521 187.13 24.0782 188.687 25.4532C190.255 26.8282 191.505 28.5573 192.437 30.6407C193.38 32.7136 193.854 35.1198 193.854 37.8698ZM169.896 37.8698C169.896 39.5782 170.255 41.0157 170.979 42.1823C171.698 43.349 172.63 44.2188 173.771 44.7865C174.922 45.3594 176.125 45.6407 177.375 45.6407C178.635 45.6407 179.833 45.3594 180.958 44.7865C182.083 44.2188 183.005 43.349 183.729 42.1823C184.448 41.0157 184.812 39.5782 184.812 37.8698C184.812 35.2344 184.089 33.2605 182.646 31.9532C181.198 30.6355 179.443 29.974 177.375 29.974C176.125 29.974 174.922 30.2761 173.771 30.8698C172.63 31.4532 171.698 32.3282 170.979 33.4948C170.255 34.6615 169.896 36.1198 169.896 37.8698Z" fill="black"/>
<path d="M210.703 53.2031C207.396 53.2031 204.63 52.5365 202.412 51.2031C200.203 49.8594 198.542 48.0469 197.432 45.7656C196.333 43.474 195.787 40.9219 195.787 38.099C195.787 35.1302 196.333 32.4323 197.432 30.0156C198.542 27.5885 200.193 25.651 202.391 24.2031C204.583 22.7448 207.297 22.0156 210.537 22.0156C212.063 22.0156 213.547 22.2604 214.995 22.7448C216.453 23.2188 217.693 24.1198 218.724 25.4531V22.3698H227.703V51.5365C227.703 54.3958 227.25 56.8385 226.349 58.8698C225.458 60.9115 224.255 62.5677 222.745 63.849C221.245 65.125 219.557 66.0677 217.682 66.6823C215.818 67.2917 213.917 67.599 211.974 67.599C210.068 67.599 208.203 67.3177 206.37 66.7656C204.537 66.224 202.891 65.4167 201.432 64.349C199.985 63.276 198.833 62 197.974 60.5156C197.125 59.026 196.703 57.349 196.703 55.474H206.141C206.141 56.3906 206.682 57.1823 207.766 57.849C208.849 58.5156 210.099 58.849 211.516 58.849C212.61 58.849 213.693 58.625 214.766 58.1823C215.833 57.75 216.735 57 217.474 55.9323C218.224 54.8594 218.641 53.4167 218.724 51.599V49.9948C217.724 51.1771 216.526 52.0104 215.141 52.4948C213.75 52.9688 212.271 53.2031 210.703 53.2031ZM211.745 30.599C210.214 30.599 208.938 30.9688 207.912 31.7031C206.88 32.4271 206.11 33.3594 205.599 34.4948C205.083 35.6354 204.828 36.8385 204.828 38.099C204.828 39.5469 205.162 40.7656 205.828 41.7656C206.495 42.7552 207.354 43.4896 208.412 43.974C209.479 44.4479 210.589 44.6823 211.745 44.6823C212.922 44.6406 214.037 44.3698 215.078 43.8698C216.13 43.3698 217 42.6354 217.682 41.6615C218.375 40.6927 218.724 39.5052 218.724 38.099C218.724 36.724 218.401 35.4688 217.766 34.3281C217.141 33.1771 216.297 32.2656 215.245 31.599C214.203 30.9323 213.037 30.599 211.745 30.599Z" fill="black"/>
<path d="M240.39 25.4532C241.484 24.0782 242.874 23.1511 244.557 22.6615C246.234 22.1615 247.895 21.9115 249.536 21.9115C252.463 21.9532 254.734 22.6355 256.348 23.9532C257.973 25.2605 259.109 26.9896 259.765 29.1407C260.416 31.2969 260.723 33.6719 260.682 36.2657V53.3073H251.536V36.3282C251.536 34.2344 251.036 32.698 250.036 31.724C249.046 30.7552 247.942 30.2657 246.723 30.2657C245.848 30.2657 244.953 30.5157 244.036 31.0157C243.119 31.5052 242.354 32.2032 241.744 33.1198C241.145 34.0365 240.848 35.1615 240.848 36.4948V53.3073H231.286V22.3698H240.39V25.4532Z" fill="black"/>
<path d="M264.211 15.5574C264.211 13.8074 264.774 12.4949 265.899 11.6199C267.024 10.7449 268.237 10.3074 269.544 10.3074C270.904 10.3074 272.154 10.7397 273.294 11.599C274.445 12.448 275.024 13.7657 275.024 15.5574C275.024 17.2397 274.466 18.5053 273.357 19.349C272.258 20.1824 271.044 20.599 269.711 20.599C268.336 20.599 267.07 20.1824 265.919 19.349C264.779 18.5053 264.211 17.2397 264.211 15.5574ZM265.086 22.3699V53.3074H274.232V22.3699H265.086Z" fill="black"/>
<path d="M305.681 12.8281H312.64L329.285 53.3073H318.244L316.015 47.4115H302.348L300.119 53.3073H289.66L305.681 12.8281ZM309.223 28.9531L306.244 37.4115L305.91 38.3281H312.535L312.306 37.6406L309.223 28.9531Z" fill="black"/>
<path d="M353.007 53.3074H329.965V44.5574H336.59V21.974H329.965V13.0574H353.007V21.974H346.382V44.5574H353.007V53.3074Z" fill="black"/>
<path d="M232.889 85.5781C232.79 85.1354 232.581 84.776 232.264 84.4948C231.956 84.2187 231.597 84.0104 231.18 83.8698C230.764 83.7343 230.337 83.6614 229.91 83.6614C229.394 83.6614 228.878 83.7552 228.368 83.9323C227.868 84.1145 227.456 84.4062 227.139 84.8073C227.014 84.9635 226.92 85.1406 226.868 85.3489C226.811 85.5573 226.785 85.7656 226.785 85.9739C226.785 86.5468 226.951 86.9739 227.285 87.2656C227.618 87.5468 228.04 87.7343 228.555 87.8281C229.066 87.927 229.602 88.0052 230.16 88.0573C230.67 88.1145 231.201 88.2031 231.743 88.3281C232.285 88.4531 232.795 88.6354 233.285 88.8698C233.785 89.0937 234.212 89.401 234.576 89.7864C234.936 90.1614 235.186 90.651 235.326 91.2448C235.394 91.6093 235.43 91.9323 235.43 92.2239C235.43 92.9479 235.269 93.5937 234.951 94.1614C234.628 94.7187 234.201 95.1927 233.66 95.5781C233.128 95.9687 232.535 96.2656 231.868 96.4739C231.212 96.6666 230.555 96.7656 229.889 96.7656C229.316 96.7656 228.727 96.6823 228.118 96.5156C227.519 96.3489 226.956 96.0989 226.43 95.7656C225.915 95.4218 225.483 94.9948 225.139 94.4948C224.79 93.9948 224.581 93.4114 224.514 92.7448L224.493 92.3281L226.66 92.2864L226.68 92.5989V92.5156C226.748 92.9739 226.951 93.3645 227.285 93.6823C227.618 94.0052 228.019 94.2448 228.493 94.4114C228.977 94.5677 229.451 94.6406 229.91 94.6406C230.451 94.6406 230.977 94.5468 231.493 94.3489C232.003 94.1562 232.43 93.8802 232.764 93.5156C233.097 93.1562 233.264 92.7187 233.264 92.2031C233.264 92.052 233.243 91.8802 233.201 91.6823C233.118 91.3073 232.91 91.026 232.576 90.8281C232.243 90.6354 231.837 90.4948 231.368 90.4114C230.894 90.3281 230.41 90.2656 229.91 90.2239C229.326 90.1718 228.733 90.0781 228.139 89.9531C227.54 89.8281 226.983 89.6354 226.472 89.3698C225.956 89.0937 225.535 88.7187 225.201 88.2448C224.868 87.776 224.67 87.1406 224.618 86.3489V86.3698C224.618 86.302 224.608 86.2395 224.597 86.1823C224.597 86.1302 224.597 86.0729 224.597 86.0156C224.597 85.0885 224.873 84.2604 225.43 83.5364C225.93 82.8854 226.587 82.3906 227.41 82.0573C228.243 81.7239 229.087 81.5573 229.951 81.5573C230.712 81.5573 231.462 81.6979 232.201 81.9739C232.936 82.2552 233.561 82.6823 234.076 83.2656C234.587 83.8385 234.91 84.5729 235.035 85.4739L232.889 85.5781Z" fill="#FE330A"/>
<path d="M249.189 90.8905C249.189 91.8801 249.012 92.7447 248.668 93.4947C248.319 94.2447 247.845 94.8697 247.251 95.3697C246.653 95.8593 245.981 96.2239 245.231 96.4739C244.491 96.7239 243.731 96.8489 242.939 96.8489C242.173 96.8489 241.418 96.7239 240.668 96.4739C239.929 96.2239 239.262 95.8593 238.668 95.3697C238.085 94.8697 237.616 94.2447 237.272 93.4947C236.923 92.7447 236.751 91.8801 236.751 90.8905C236.751 89.8905 236.923 89.0155 237.272 88.2655C237.616 87.5155 238.09 86.901 238.689 86.4114C239.283 85.9114 239.96 85.5364 240.71 85.2864C241.46 85.0364 242.22 84.9114 243.001 84.9114C243.793 84.9114 244.548 85.0364 245.272 85.2864C246.007 85.5364 246.668 85.9114 247.251 86.4114C247.845 86.901 248.319 87.5155 248.668 88.2655C249.012 89.0155 249.189 89.8905 249.189 90.8905ZM238.856 90.8905C238.856 91.7968 239.054 92.552 239.46 93.1614C239.861 93.7603 240.376 94.2135 241.001 94.5155C241.637 94.8228 242.298 94.9739 242.981 94.9739C243.673 94.9739 244.335 94.8228 244.96 94.5155C245.595 94.2135 246.116 93.7551 246.522 93.1405C246.923 92.5312 247.126 91.7812 247.126 90.8905C247.126 89.9739 246.923 89.2135 246.522 88.5989C246.132 87.9895 245.616 87.5312 244.981 87.2239C244.34 86.9218 243.679 86.7655 243.001 86.7655C242.304 86.7655 241.637 86.9218 241.001 87.2239C240.376 87.5312 239.861 87.9895 239.46 88.5989C239.054 89.1978 238.856 89.9635 238.856 90.8905Z" fill="#FE330A"/>
<path d="M251.413 96.6406V81.7031H253.497V96.6406H251.413Z" fill="#FE330A"/>
<path d="M264.563 95.1198C264.146 95.7448 263.625 96.1823 263 96.4323C262.375 96.6823 261.677 96.8073 260.917 96.8073C259.75 96.8073 258.797 96.5885 258.063 96.1406C257.323 95.6823 256.781 95.0364 256.438 94.2031C256.089 93.3698 255.917 92.4062 255.917 91.3073V84.9948H258V91.3073C258 92.0156 258.084 92.651 258.25 93.2031C258.417 93.7604 258.714 94.1927 259.146 94.4948C259.589 94.802 260.229 94.9531 261.063 94.9531C262.156 94.9531 263 94.6145 263.584 93.9323C264.167 93.2395 264.459 92.3854 264.459 91.3698V84.9948H266.563V96.6406H264.563V95.1198Z" fill="#FE330A"/>
<path d="M271.887 85.0989H274.429V86.7655H271.887V93.2655C271.887 93.9478 272.038 94.401 272.346 94.6197C272.663 94.8437 273.085 94.953 273.616 94.953C273.741 94.953 273.877 94.953 274.033 94.953C274.184 94.9426 274.335 94.927 274.491 94.9114V96.6614C274.325 96.6718 274.158 96.6822 273.991 96.6822C273.835 96.6926 273.684 96.703 273.533 96.703C272.767 96.703 272.106 96.5989 271.554 96.3905C270.997 96.1822 270.564 95.8385 270.262 95.3489C269.955 94.8489 269.804 94.151 269.804 93.2447V86.7655H268.075V85.0989H269.804V82.953L271.887 82.5364V85.0989Z" fill="#FE330A"/>
<path d="M275.73 82.1406C275.73 81.7395 275.865 81.4427 276.147 81.2448C276.423 81.0364 276.72 80.9323 277.042 80.9323C277.376 80.9323 277.673 81.0312 277.938 81.2239C278.199 81.4218 278.334 81.7239 278.334 82.1406C278.334 82.5312 278.194 82.8281 277.917 83.0364C277.652 83.2448 277.355 83.3489 277.022 83.3489C276.714 83.3489 276.423 83.2448 276.147 83.0364C275.865 82.8281 275.73 82.5312 275.73 82.1406ZM275.98 84.9739V96.6406H278.063V84.9739H275.98Z" fill="#FE330A"/>
<path d="M292.89 90.8905C292.89 91.8801 292.713 92.7447 292.369 93.4947C292.02 94.2447 291.546 94.8697 290.952 95.3697C290.353 95.8593 289.681 96.2239 288.931 96.4739C288.192 96.7239 287.431 96.8489 286.64 96.8489C285.874 96.8489 285.119 96.7239 284.369 96.4739C283.629 96.2239 282.963 95.8593 282.369 95.3697C281.785 94.8697 281.317 94.2447 280.973 93.4947C280.624 92.7447 280.452 91.8801 280.452 90.8905C280.452 89.8905 280.624 89.0155 280.973 88.2655C281.317 87.5155 281.791 86.901 282.39 86.4114C282.983 85.9114 283.66 85.5364 284.41 85.2864C285.16 85.0364 285.921 84.9114 286.702 84.9114C287.494 84.9114 288.249 85.0364 288.973 85.2864C289.707 85.5364 290.369 85.9114 290.952 86.4114C291.546 86.901 292.02 87.5155 292.369 88.2655C292.713 89.0155 292.89 89.8905 292.89 90.8905ZM282.556 90.8905C282.556 91.7968 282.754 92.552 283.16 93.1614C283.562 93.7603 284.077 94.2135 284.702 94.5155C285.338 94.8228 285.999 94.9739 286.681 94.9739C287.374 94.9739 288.035 94.8228 288.66 94.5155C289.296 94.2135 289.817 93.7551 290.223 93.1405C290.624 92.5312 290.827 91.7812 290.827 90.8905C290.827 89.9739 290.624 89.2135 290.223 88.5989C289.832 87.9895 289.317 87.5312 288.681 87.2239C288.041 86.9218 287.379 86.7655 286.702 86.7655C286.004 86.7655 285.338 86.9218 284.702 87.2239C284.077 87.5312 283.562 87.9895 283.16 88.5989C282.754 89.1978 282.556 89.9635 282.556 90.8905Z" fill="#FE330A"/>
<path d="M297.197 86.5364C297.624 85.9114 298.14 85.4895 298.739 85.2656C299.348 85.0468 300.015 84.9323 300.739 84.9323C301.916 84.9323 302.874 85.1614 303.614 85.6198C304.348 86.0677 304.89 86.7031 305.239 87.5364C305.583 88.3593 305.76 89.3229 305.76 90.4323V96.6406H303.677V90.4531C303.677 89.7343 303.593 89.0937 303.427 88.5364C303.27 87.9843 302.968 87.552 302.51 87.2448C302.062 86.9427 301.427 86.7864 300.593 86.7864C299.869 86.7864 299.249 86.9479 298.739 87.2656C298.239 87.5885 297.854 88.0156 297.593 88.5573C297.328 89.0989 297.197 89.7031 297.197 90.3698V96.6406H295.114V85.0989H297.197V86.5364Z" fill="#FE330A"/>
<path d="M309.732 88.4323C309.732 88.7812 309.821 89.0573 310.003 89.2656C310.18 89.4635 310.409 89.5989 310.69 89.6823C310.982 89.7656 311.279 89.8229 311.586 89.8489C311.888 89.8645 312.17 89.8802 312.42 89.8906C312.961 89.9323 313.503 90.0156 314.045 90.1406C314.597 90.2656 315.107 90.4531 315.565 90.7031C316.024 90.9531 316.388 91.2968 316.67 91.7239C316.946 92.1562 317.086 92.6979 317.086 93.3489C317.086 94.0156 316.94 94.5781 316.649 95.0364C316.357 95.4843 315.966 95.8385 315.482 96.0989C315.008 96.3645 314.487 96.552 313.92 96.6614C313.347 96.7708 312.795 96.8281 312.253 96.8281C311.461 96.8281 310.711 96.7083 310.003 96.4739C309.305 96.2239 308.732 95.8281 308.274 95.2864C307.815 94.7448 307.555 94.0156 307.503 93.0989H309.586C309.628 93.7395 309.909 94.2187 310.44 94.5364C310.966 94.8593 311.586 95.0156 312.295 95.0156C312.654 95.0156 313.034 94.9739 313.44 94.8906C313.857 94.7968 314.216 94.6198 314.524 94.3698C314.826 94.1198 314.982 93.7656 314.982 93.3073C314.982 92.9895 314.883 92.7343 314.69 92.5364C314.508 92.3437 314.263 92.1979 313.961 92.0989C313.67 91.9895 313.362 91.9114 313.045 91.8698C312.737 91.8281 312.451 91.802 312.19 91.7864C311.675 91.7448 311.154 91.677 310.628 91.5781C310.097 91.4687 309.607 91.2968 309.149 91.0573C308.701 90.8073 308.341 90.4739 308.065 90.0573C307.8 89.6406 307.67 89.1145 307.67 88.4739C307.67 87.5729 307.899 86.8645 308.357 86.3489C308.815 85.8229 309.399 85.4479 310.107 85.2239C310.815 84.9895 311.534 84.8698 312.274 84.8698C313.05 84.8698 313.763 84.9895 314.42 85.2239C315.071 85.4479 315.607 85.8073 316.024 86.3073C316.451 86.7968 316.69 87.4479 316.732 88.2656H314.67C314.612 87.7552 314.341 87.3698 313.857 87.1198C313.383 86.8698 312.836 86.7448 312.211 86.7448C311.571 86.7448 310.993 86.8802 310.482 87.1406C309.982 87.4062 309.732 87.8385 309.732 88.4323Z" fill="#FE330A"/>
<path d="M328.604 83.5573V94.6406H331.375V96.6406H323.667V94.6406H326.437V83.5573H323.667V81.5781H331.375V83.5573H328.604Z" fill="#FE330A"/>
<path d="M336.227 86.5364C336.654 85.9114 337.17 85.4895 337.769 85.2656C338.378 85.0468 339.045 84.9323 339.769 84.9323C340.946 84.9323 341.904 85.1614 342.644 85.6198C343.378 86.0677 343.92 86.7031 344.269 87.5364C344.613 88.3593 344.79 89.3229 344.79 90.4323V96.6406H342.707V90.4531C342.707 89.7343 342.623 89.0937 342.457 88.5364C342.3 87.9843 341.998 87.552 341.54 87.2448C341.092 86.9427 340.457 86.7864 339.623 86.7864C338.899 86.7864 338.279 86.9479 337.769 87.2656C337.269 87.5885 336.884 88.0156 336.623 88.5573C336.358 89.0989 336.227 89.7031 336.227 90.3698V96.6406H334.144V85.0989H336.227V86.5364Z" fill="#FE330A"/>
<path d="M358.637 92.2447C358.439 93.276 358.043 94.1301 357.45 94.8072C356.851 95.4739 356.137 95.9739 355.304 96.3072C354.481 96.6405 353.637 96.8072 352.762 96.8072C352.023 96.8072 351.293 96.6822 350.575 96.4322C349.866 96.1822 349.226 95.8176 348.658 95.328C348.085 94.828 347.637 94.2135 347.304 93.4739C346.97 92.7239 346.804 91.8489 346.804 90.8489C346.804 89.8645 346.97 88.9947 347.304 88.2447C347.637 87.4947 348.085 86.8801 348.658 86.3905C349.241 85.9062 349.887 85.5364 350.595 85.2864C351.314 85.0364 352.054 84.9114 352.804 84.9114C353.679 84.9114 354.517 85.078 355.325 85.4114C356.142 85.7447 356.851 86.2551 357.45 86.9322C358.043 87.6145 358.439 88.4687 358.637 89.4947H356.47C356.22 88.5676 355.747 87.8801 355.054 87.4322C354.356 86.9895 353.616 86.7655 352.825 86.7655C352.184 86.7655 351.559 86.9218 350.95 87.2239C350.351 87.5155 349.856 87.9687 349.47 88.578C349.095 89.177 348.908 89.9322 348.908 90.8489C348.908 91.7812 349.095 92.552 349.47 93.1614C349.856 93.776 350.351 94.2343 350.95 94.5364C351.559 94.828 352.189 94.9739 352.845 94.9739C353.637 94.9739 354.372 94.7551 355.054 94.3072C355.747 93.8489 356.22 93.1614 356.47 92.2447H358.637Z" fill="#FE330A"/>
<path d="M361.175 94.0781C361.577 94.0781 361.905 94.2031 362.155 94.4531C362.405 94.6927 362.53 95.0104 362.53 95.4115C362.53 95.7188 362.405 96.0104 362.155 96.2865C361.905 96.5677 361.577 96.7031 361.175 96.7031C360.827 96.7031 360.53 96.5677 360.28 96.2865C360.03 96.0104 359.905 95.7188 359.905 95.4115C359.905 95.0104 360.03 94.6927 360.28 94.4531C360.53 94.2031 360.827 94.0781 361.175 94.0781Z" fill="#FE330A"/>
</g>
<defs>
<clipPath id="clip0_5_2">
<rect width="363" height="106" fill="white"/>
</clipPath>
</defs>
</svg>
